<svg id="Component_3_1" data-name="Component 3 – 1" xmlns="http://www.w3.org/2000/svg" width="176.971" height="61.785" viewBox="0 0 176.971 61.785">
  <path id="Path_12" data-name="Path 12" d="M20.252-41.945q7.4,0,11.552,2.881t4.148,8.614a9.1,9.1,0,0,1-1.541,5.2,9.308,9.308,0,0,1-4.48,3.443,8.9,8.9,0,0,1,5.661,3.457,10.309,10.309,0,0,1,1.887,6.136q0,6.021-3.976,9.118T22.24,0H1.613V-5.042l4.465-.864v-30.1l-4.465-.864v-5.07H20.252ZM14.491-18.553v12.1h7.75a7.815,7.815,0,0,0,5.1-1.455A5.269,5.269,0,0,0,29.1-12.215a6.717,6.717,0,0,0-1.5-4.71,6.137,6.137,0,0,0-4.725-1.628Zm0-5.819h6.05a8.418,8.418,0,0,0,5.186-1.383,4.76,4.76,0,0,0,1.815-4.033,5.034,5.034,0,0,0-1.829-4.292,8.987,8.987,0,0,0-5.459-1.383H14.491ZM60.671,0a15.213,15.213,0,0,1-.6-1.6,12.611,12.611,0,0,1-.4-1.656A11.572,11.572,0,0,1,56.018-.461,10.9,10.9,0,0,1,51.106.6a10.291,10.291,0,0,1-7.274-2.492,8.789,8.789,0,0,1-2.694-6.784,7.714,7.714,0,0,1,3.515-6.77q3.515-2.391,10.313-2.391h4.292v-3.054a4.593,4.593,0,0,0-1.3-3.486,5.346,5.346,0,0,0-3.832-1.239,9.074,9.074,0,0,0-2.564.331,6.709,6.709,0,0,0-1.815.792l-.547,3.342H42.867L42.9-28.06a23.608,23.608,0,0,1,5.286-2.622,19.168,19.168,0,0,1,6.5-1.066,14.791,14.791,0,0,1,9.406,2.838A9.672,9.672,0,0,1,67.7-20.829V-7.951q0,.72.014,1.354a9.634,9.634,0,0,0,.1,1.21l2.564.346V0ZM53.382-5.618a7.291,7.291,0,0,0,3.457-.821,6.675,6.675,0,0,0,2.42-2.06v-4.753H54.967A5.861,5.861,0,0,0,50.9-12a3.923,3.923,0,0,0-1.383,3.01,3.116,3.116,0,0,0,1.023,2.478A4.171,4.171,0,0,0,53.382-5.618Zm49.061-9.1q0,6.972-3.111,11.149T90.344.6A9.515,9.515,0,0,1,85.59-.533a9.685,9.685,0,0,1-3.4-3.3L81.586,0h-7.26V-39.007l-4.465-.864v-5.07H82.709v17.083a9.523,9.523,0,0,1,3.241-2.881,9.058,9.058,0,0,1,4.336-1.008,10.325,10.325,0,0,1,9.046,4.48q3.111,4.48,3.111,11.941Zm-8.383-.6a16.23,16.23,0,0,0-1.34-7.217,4.7,4.7,0,0,0-4.566-2.665,6.279,6.279,0,0,0-3.313.821,5.691,5.691,0,0,0-2.132,2.348V-8.873a5.3,5.3,0,0,0,2.146,2.189,6.909,6.909,0,0,0,3.356.749q3.255,0,4.552-2.29a13.34,13.34,0,0,0,1.3-6.5ZM138.281-26.1l-2.91.432L123.906,4.667a16.746,16.746,0,0,1-3.615,5.646q-2.261,2.276-6.813,2.276a11.027,11.027,0,0,1-2-.173q-.936-.173-2.2-.49l.979-6.136q.4.058.835.115a5.774,5.774,0,0,0,.749.058,4.631,4.631,0,0,0,3.227-1.023,6.748,6.748,0,0,0,1.729-2.55l.951-2.362L107.859-25.64l-2.91-.461v-5.07h15.269v5.07l-3.486.576L121-13.079l.432,2.247.173.029,4.926-14.721-3.515-.576v-5.07h15.269Zm12.071-13.338a14.036,14.036,0,0,1-1.527,6.064,16.9,16.9,0,0,1-3.716,5.2l-4.148-2.276a18.673,18.673,0,0,0,1.729-4.134,17.9,17.9,0,0,0,.6-4.854v-5.5h7.058Zm27.08,18.985h-5.646l-.893-3.889a7.367,7.367,0,0,0-2.175-1.152,8.678,8.678,0,0,0-2.9-.461,5.639,5.639,0,0,0-3.515.994,3.024,3.024,0,0,0-1.3,2.492,2.837,2.837,0,0,0,1.239,2.348,13.26,13.26,0,0,0,4.955,1.656q5.791,1.152,8.585,3.385a7.441,7.441,0,0,1,2.794,6.151,8.181,8.181,0,0,1-3.615,6.871Q171.354.6,165.448.6a19.932,19.932,0,0,1-6.612-1.052,16.889,16.889,0,0,1-5.344-3.01l-.086-7h5.877L160.435-6.4a4.819,4.819,0,0,0,2.045.936,11.882,11.882,0,0,0,2.708.3,6.875,6.875,0,0,0,3.9-.922,2.89,2.89,0,0,0,1.34-2.506,2.931,2.931,0,0,0-1.354-2.391,13.823,13.823,0,0,0-4.984-1.786,19.979,19.979,0,0,1-8.311-3.327,7.224,7.224,0,0,1-2.809-6.007,8.715,8.715,0,0,1,3.227-6.756q3.227-2.838,9.19-2.838a23.627,23.627,0,0,1,6.871.979,14.518,14.518,0,0,1,5.085,2.506Z" transform="translate(-1.613 44.941)" fill="#626262"/>
  <path id="Path_13" data-name="Path 13" d="M.54-1.2,1.5-1.4V-6H.4V-7.4H1.5v-.82a2.5,2.5,0,0,1,.718-1.917,2.834,2.834,0,0,1,2.017-.673,3.647,3.647,0,0,1,.516.038q.263.038.578.106L5.161-9.181Q5-9.208,4.843-9.229a2.751,2.751,0,0,0-.359-.021.958.958,0,0,0-.735.267,1.079,1.079,0,0,0-.25.766v.82H4.97V-6H3.5V-1.4l.964.205V0H.54Zm5.1-2.57a3.96,3.96,0,0,1,.926-2.71,3.227,3.227,0,0,1,2.56-1.056A3.241,3.241,0,0,1,11.693-6.48a3.957,3.957,0,0,1,.926,2.714v.144a3.954,3.954,0,0,1-.926,2.717A3.229,3.229,0,0,1,9.14.144,3.254,3.254,0,0,1,6.566-.906,3.954,3.954,0,0,1,5.64-3.623Zm2,.144A3.218,3.218,0,0,0,7.991-2a1.227,1.227,0,0,0,1.148.612A1.215,1.215,0,0,0,10.271-2a3.2,3.2,0,0,0,.359-1.62v-.144a3.164,3.164,0,0,0-.362-1.606A1.226,1.226,0,0,0,9.126-6a1.211,1.211,0,0,0-1.135.622,3.213,3.213,0,0,0-.355,1.606Zm5.852-.144a3.96,3.96,0,0,1,.926-2.71,3.227,3.227,0,0,1,2.56-1.056A3.241,3.241,0,0,1,19.541-6.48a3.957,3.957,0,0,1,.926,2.714v.144a3.954,3.954,0,0,1-.926,2.717A3.229,3.229,0,0,1,16.987.144,3.254,3.254,0,0,1,14.414-.906a3.954,3.954,0,0,1-.926-2.717Zm2,.144A3.218,3.218,0,0,0,15.839-2a1.227,1.227,0,0,0,1.148.612A1.215,1.215,0,0,0,18.119-2a3.2,3.2,0,0,0,.359-1.62v-.144a3.164,3.164,0,0,0-.362-1.606A1.226,1.226,0,0,0,16.974-6a1.211,1.211,0,0,0-1.135.622,3.213,3.213,0,0,0-.355,1.606ZM26.147-.9a2.45,2.45,0,0,1-.824.779A2.176,2.176,0,0,1,24.24.144a2.508,2.508,0,0,1-2.123-1,4.262,4.262,0,0,1-.755-2.639v-.144a4.79,4.79,0,0,1,.759-2.823,2.462,2.462,0,0,1,2.133-1.073,2.048,2.048,0,0,1,1,.243,2.44,2.44,0,0,1,.779.687V-9.256l-1.066-.205v-1.2h3.063V-1.4l.957.205V0H26.3ZM23.358-3.493a3.039,3.039,0,0,0,.325,1.528,1.135,1.135,0,0,0,1.063.557,1.544,1.544,0,0,0,.759-.178,1.417,1.417,0,0,0,.526-.513V-5.236a1.521,1.521,0,0,0-.523-.55,1.4,1.4,0,0,0-.749-.195,1.12,1.12,0,0,0-1.066.649,3.7,3.7,0,0,0-.335,1.7Zm9.543-2.7V-7.4h2.9l.1.861a2.371,2.371,0,0,1,.786-.738,2.125,2.125,0,0,1,1.066-.26A2.462,2.462,0,0,1,39.881-6.46a4.79,4.79,0,0,1,.759,2.823v.144a4.248,4.248,0,0,1-.759,2.639,2.51,2.51,0,0,1-2.119,1,2.369,2.369,0,0,1-1.032-.215A2.12,2.12,0,0,1,35.957-.7v2.14l.964.205v1.2H33v-1.2l.964-.205V-5.988Zm5.742,2.557a3.578,3.578,0,0,0-.349-1.7,1.137,1.137,0,0,0-1.066-.649,1.507,1.507,0,0,0-.769.185,1.317,1.317,0,0,0-.5.526v3.24a1.224,1.224,0,0,0,.5.479,1.693,1.693,0,0,0,.783.164,1.148,1.148,0,0,0,1.063-.567,3,3,0,0,0,.338-1.538ZM41.18-9.461v-1.2h3.063V-1.4l.964.205V0H41.282V-1.2l.964-.205V-9.256ZM50.565,0a3.61,3.61,0,0,1-.144-.379,2.992,2.992,0,0,1-.1-.393,2.746,2.746,0,0,1-.865.663A2.586,2.586,0,0,1,48.3.144,2.442,2.442,0,0,1,46.57-.448a2.086,2.086,0,0,1-.639-1.61,1.83,1.83,0,0,1,.834-1.606,4.356,4.356,0,0,1,2.447-.567H50.23v-.725a1.09,1.09,0,0,0-.308-.827,1.268,1.268,0,0,0-.909-.294A2.153,2.153,0,0,0,48.405-6a1.592,1.592,0,0,0-.431.188l-.13.793h-1.5l.007-1.641A5.6,5.6,0,0,1,47.6-7.28a4.548,4.548,0,0,1,1.542-.253,3.51,3.51,0,0,1,2.232.673,2.3,2.3,0,0,1,.858,1.917v3.056q0,.171,0,.321a2.286,2.286,0,0,0,.024.287l.608.082V0ZM48.836-1.333a1.73,1.73,0,0,0,.82-.195,1.584,1.584,0,0,0,.574-.489V-3.145H49.212a1.391,1.391,0,0,0-.964.3.931.931,0,0,0-.328.714.739.739,0,0,0,.243.588A.99.99,0,0,0,48.836-1.333Zm8.183-.055a1.176,1.176,0,0,0,.854-.311,1.1,1.1,0,0,0,.321-.831H60l.021.041a2.307,2.307,0,0,1-.841,1.876,3.173,3.173,0,0,1-2.16.755A3.173,3.173,0,0,1,54.469-.9a3.985,3.985,0,0,1-.9-2.687v-.205a3.935,3.935,0,0,1,.919-2.687,3.294,3.294,0,0,1,2.622-1.053,4.55,4.55,0,0,1,1.606.267,3.174,3.174,0,0,1,1.183.752l.027,1.976h-1.62l-.328-1.155a1.261,1.261,0,0,0-.369-.215,1.364,1.364,0,0,0-.5-.085,1.26,1.26,0,0,0-1.2.615,3.193,3.193,0,0,0-.349,1.586v.205a3.407,3.407,0,0,0,.321,1.6A1.167,1.167,0,0,0,57.019-1.388ZM64.463.144A3.33,3.33,0,0,1,61.906-.882a3.666,3.666,0,0,1-.957-2.6V-3.76a4.046,4.046,0,0,1,.906-2.714,3.007,3.007,0,0,1,2.43-1.06,2.994,2.994,0,0,1,2.324.9,3.472,3.472,0,0,1,.827,2.44V-3.1H63.021l-.014.041a1.93,1.93,0,0,0,.489,1.2,1.524,1.524,0,0,0,1.179.472,3.84,3.84,0,0,0,1.1-.133,5.058,5.058,0,0,0,.957-.42l.54,1.23A3.929,3.929,0,0,1,66.086-.1,5.049,5.049,0,0,1,64.463.144ZM64.285-6a1.039,1.039,0,0,0-.875.424,2.207,2.207,0,0,0-.4,1.114l.021.034h2.447V-4.6a1.6,1.6,0,0,0-.3-1.015A1.072,1.072,0,0,0,64.285-6Z" transform="translate(37.387 58.941)" fill="#f0972a"/>
</svg>
