<svg id="dinner" xmlns="http://www.w3.org/2000/svg" width="17.588" height="17.588" viewBox="0 0 17.588 17.588">
  <g id="Group_7" data-name="Group 7">
    <g id="Group_6" data-name="Group 6">
      <path id="Path_4" data-name="Path 4" d="M4.637,0a.515.515,0,0,0-.515.515V4.122H3.092V.515a.515.515,0,0,0-1.031,0V4.122H1.031V.515A.515.515,0,0,0,0,.515V5.668a1.577,1.577,0,0,0,1.546,1.58H3.607a1.577,1.577,0,0,0,1.546-1.58V.515A.515.515,0,0,0,4.637,0Z" fill="#a5a5a5"/>
    </g>
  </g>
  <g id="Group_9" data-name="Group 9" transform="translate(4.637 4.122)">
    <g id="Group_8" data-name="Group 8">
      <path id="Path_5" data-name="Path 5" d="M142.8,126.733v-4.97s0,0,0,0a4.686,4.686,0,0,0-6.252-.976v.763A2.627,2.627,0,0,1,135,123.938v2.814a4.664,4.664,0,0,0,7.942.624A1.53,1.53,0,0,1,142.8,126.733Z" transform="translate(-135 -120)" fill="#a5a5a5"/>
    </g>
  </g>
  <g id="Group_11" data-name="Group 11" transform="translate(4.637 12.244)">
    <g id="Group_10" data-name="Group 10">
      <path id="Path_6" data-name="Path 6" d="M144.344,356.59a1.528,1.528,0,0,1-.666-.157,5.719,5.719,0,0,1-8.678.428v2.686a7.747,7.747,0,0,0,9.859-1.322V356.59Z" transform="translate(-135 -356.433)" fill="#a5a5a5"/>
    </g>
  </g>
  <g id="Group_13" data-name="Group 13" transform="translate(6.183 1.031)">
    <g id="Group_12" data-name="Group 12">
      <path id="Path_7" data-name="Path 7" d="M182.611,30a7.9,7.9,0,0,0-2.611.449v2.23a5.763,5.763,0,0,1,6.39.806,7.808,7.808,0,0,1,.685-2.084A7.8,7.8,0,0,0,182.611,30Z" transform="translate(-180 -30)" fill="#a5a5a5"/>
    </g>
  </g>
  <g id="Group_15" data-name="Group 15" transform="translate(13.466 0)">
    <g id="Group_14" data-name="Group 14">
      <path id="Path_8" data-name="Path 8" d="M395.85.063a.516.516,0,0,0-.529.026A6.73,6.73,0,0,0,392,5.887v4.97a.515.515,0,0,0,.515.515h1.546v5.187a1.031,1.031,0,0,0,2.061,0V.517A.515.515,0,0,0,395.85.063Z" transform="translate(-392 -0.002)" fill="#a5a5a5"/>
    </g>
  </g>
  <g id="Group_17" data-name="Group 17" transform="translate(1.546 8.279)">
    <g id="Group_16" data-name="Group 16">
      <path id="Path_9" data-name="Path 9" d="M45,241v8.279a1.031,1.031,0,0,0,2.061,0V241Z" transform="translate(-45 -241)" fill="#a5a5a5"/>
    </g>
  </g>
</svg>
