<svg xmlns="http://www.w3.org/2000/svg" width="17.223" height="16.505" viewBox="0 0 17.223 16.505">
  <path id="star" d="M3.855,17a.917.917,0,0,1-.892-1.12L4.071,11,.313,7.7A.916.916,0,0,1,.832,6.1L5.8,5.649l1.966-4.6a.915.915,0,0,1,1.684,0l1.966,4.6L16.39,6.1a.916.916,0,0,1,.52,1.6L13.153,11l1.108,4.881a.915.915,0,0,1-1.362.989L8.612,14.3,4.324,16.868A.917.917,0,0,1,3.855,17Zm4.757-3.8a.918.918,0,0,1,.469.13l4.046,2.42-1.046-4.607a.915.915,0,0,1,.29-.892L15.92,7.14l-4.694-.426a.914.914,0,0,1-.761-.555L8.612,1.818,6.757,6.159A.912.912,0,0,1,6,6.712L1.3,7.138,4.851,10.25a.913.913,0,0,1,.29.893L4.1,15.749,8.142,13.33A.917.917,0,0,1,8.612,13.2ZM5.766,5.737h0Zm5.689,0h0Zm0,0" transform="translate(0 -0.492)" fill="#a5a5a5"/>
</svg>
