<svg id="Component_4_1" data-name="Component 4 – 1" xmlns="http://www.w3.org/2000/svg" width="112.965" height="39.439" viewBox="0 0 112.965 39.439">
  <path id="Path_12" data-name="Path 12" d="M13.511-43.029a12.784,12.784,0,0,1,7.374,1.839,6.253,6.253,0,0,1,2.648,5.5,5.808,5.808,0,0,1-.984,3.319,5.942,5.942,0,0,1-2.86,2.2A5.683,5.683,0,0,1,23.3-27.968a6.58,6.58,0,0,1,1.2,3.917,6.928,6.928,0,0,1-2.538,5.82q-2.538,1.977-7.19,1.977H1.613v-3.218l2.85-.552V-39.241l-2.85-.552v-3.236h11.9ZM9.833-28.1v7.723H14.78a4.988,4.988,0,0,0,3.255-.929,3.363,3.363,0,0,0,1.122-2.749,4.287,4.287,0,0,0-.956-3.007A3.917,3.917,0,0,0,15.185-28.1Zm0-3.715h3.862a5.374,5.374,0,0,0,3.31-.883,3.038,3.038,0,0,0,1.159-2.574A3.213,3.213,0,0,0,17-38.009a5.737,5.737,0,0,0-3.485-.883H9.833ZM39.311-16.254a9.71,9.71,0,0,1-.386-1.021,8.05,8.05,0,0,1-.257-1.057,7.387,7.387,0,0,1-2.326,1.784,6.958,6.958,0,0,1-3.135.68,6.569,6.569,0,0,1-4.643-1.591,5.61,5.61,0,0,1-1.719-4.331,4.924,4.924,0,0,1,2.243-4.321q2.243-1.526,6.583-1.526h2.74v-1.949a2.932,2.932,0,0,0-.828-2.225,3.412,3.412,0,0,0-2.446-.791,5.792,5.792,0,0,0-1.637.211,4.282,4.282,0,0,0-1.159.506l-.349,2.133H27.947l.018-4.413a15.069,15.069,0,0,1,3.374-1.673,12.235,12.235,0,0,1,4.147-.68,9.441,9.441,0,0,1,6,1.811A6.174,6.174,0,0,1,43.8-29.55v8.22q0,.46.009.864a6.149,6.149,0,0,0,.064.772l1.637.221v3.218ZM34.659-19.84a4.654,4.654,0,0,0,2.207-.524,4.261,4.261,0,0,0,1.545-1.315v-3.034H35.67a3.741,3.741,0,0,0-2.593.8,2.5,2.5,0,0,0-.883,1.922,1.989,1.989,0,0,0,.653,1.581A2.663,2.663,0,0,0,34.659-19.84Zm31.317-5.811a11.639,11.639,0,0,1-1.986,7.117,6.717,6.717,0,0,1-5.737,2.666,6.073,6.073,0,0,1-3.034-.726,6.182,6.182,0,0,1-2.17-2.106l-.386,2.446H48.028v-24.9l-2.85-.552v-3.236h8.2v10.9a6.079,6.079,0,0,1,2.069-1.839,5.782,5.782,0,0,1,2.768-.644,6.591,6.591,0,0,1,5.774,2.86,13.127,13.127,0,0,1,1.986,7.622Zm-5.351-.386a10.36,10.36,0,0,0-.855-4.606,3,3,0,0,0-2.915-1.7,4.008,4.008,0,0,0-2.115.524,3.633,3.633,0,0,0-1.361,1.5v8.4a3.384,3.384,0,0,0,1.37,1.4,4.41,4.41,0,0,0,2.142.478A3.053,3.053,0,0,0,59.8-21.5a8.515,8.515,0,0,0,.828-4.147Zm28.227-6.878-1.857.276L79.675-13.275a10.689,10.689,0,0,1-2.308,3.6,5.886,5.886,0,0,1-4.349,1.453,7.039,7.039,0,0,1-1.278-.11q-.6-.11-1.407-.313l.625-3.917.533.074a3.686,3.686,0,0,0,.478.037,2.956,2.956,0,0,0,2.06-.653,4.308,4.308,0,0,0,1.1-1.627l.607-1.508L69.433-32.621l-1.857-.294v-3.236h9.746v3.236l-2.225.368L77.818-24.6l.276,1.434.11.018,3.145-9.4-2.243-.368v-3.236h9.746Zm7.705-8.514a8.96,8.96,0,0,1-.975,3.871,10.785,10.785,0,0,1-2.372,3.319l-2.648-1.453a11.92,11.92,0,0,0,1.1-2.639,11.428,11.428,0,0,0,.386-3.1v-3.512h4.505Zm17.286,12.118h-3.6l-.57-2.483a4.7,4.7,0,0,0-1.388-.736,5.539,5.539,0,0,0-1.848-.294,3.6,3.6,0,0,0-2.243.634,1.93,1.93,0,0,0-.828,1.591,1.811,1.811,0,0,0,.791,1.5,8.464,8.464,0,0,0,3.163,1.057,12.875,12.875,0,0,1,5.48,2.161,4.749,4.749,0,0,1,1.784,3.926,5.222,5.222,0,0,1-2.308,4.386,10,10,0,0,1-6.078,1.7,12.723,12.723,0,0,1-4.22-.671,10.781,10.781,0,0,1-3.411-1.922l-.055-4.469h3.751l.736,2.593a3.076,3.076,0,0,0,1.306.6,7.584,7.584,0,0,0,1.729.193,4.388,4.388,0,0,0,2.492-.588,1.845,1.845,0,0,0,.855-1.6,1.871,1.871,0,0,0-.864-1.526,8.824,8.824,0,0,0-3.181-1.14,12.753,12.753,0,0,1-5.305-2.124,4.611,4.611,0,0,1-1.793-3.834,5.563,5.563,0,0,1,2.06-4.312,8.6,8.6,0,0,1,5.866-1.811,15.082,15.082,0,0,1,4.386.625,9.267,9.267,0,0,1,3.246,1.6Z" transform="translate(-1.613 44.941)" fill="#fff"/>
  <path id="Path_13" data-name="Path 13" d="M.491-4.672,1.106-4.8V-7.736H.4V-8.63h.7v-.524a1.6,1.6,0,0,1,.458-1.224,1.809,1.809,0,0,1,1.287-.43,2.328,2.328,0,0,1,.329.024q.168.024.369.068l-.109.947q-.1-.017-.2-.031a1.756,1.756,0,0,0-.229-.013.612.612,0,0,0-.469.17.689.689,0,0,0-.159.489v.524h.938v.895H2.38V-4.8L3-4.672v.764H.491ZM3.746-6.313a2.528,2.528,0,0,1,.591-1.73,2.06,2.06,0,0,1,1.634-.674,2.068,2.068,0,0,1,1.639.672A2.526,2.526,0,0,1,8.2-6.313v.092A2.524,2.524,0,0,1,7.61-4.487a2.061,2.061,0,0,1-1.63.67,2.077,2.077,0,0,1-1.643-.67,2.524,2.524,0,0,1-.591-1.735Zm1.274.092a2.054,2.054,0,0,0,.227,1.036.783.783,0,0,0,.733.391A.776.776,0,0,0,6.7-5.187a2.04,2.04,0,0,0,.229-1.034v-.092A2.02,2.02,0,0,0,6.7-7.339a.782.782,0,0,0-.729-.4.773.773,0,0,0-.724.4A2.051,2.051,0,0,0,5.02-6.313Zm3.735-.092a2.528,2.528,0,0,1,.591-1.73,2.06,2.06,0,0,1,1.634-.674,2.068,2.068,0,0,1,1.639.672,2.526,2.526,0,0,1,.591,1.732v.092a2.524,2.524,0,0,1-.591,1.735,2.061,2.061,0,0,1-1.63.67,2.077,2.077,0,0,1-1.643-.67,2.524,2.524,0,0,1-.591-1.735Zm1.274.092a2.054,2.054,0,0,0,.227,1.036.783.783,0,0,0,.733.391.776.776,0,0,0,.722-.393,2.04,2.04,0,0,0,.229-1.034v-.092a2.02,2.02,0,0,0-.231-1.025.782.782,0,0,0-.729-.4.773.773,0,0,0-.724.4,2.051,2.051,0,0,0-.227,1.025Zm6.807,1.737a1.564,1.564,0,0,1-.526.5,1.389,1.389,0,0,1-.692.17,1.6,1.6,0,0,1-1.355-.637,2.72,2.72,0,0,1-.482-1.684V-6.23a3.058,3.058,0,0,1,.484-1.8,1.571,1.571,0,0,1,1.361-.685,1.307,1.307,0,0,1,.637.155,1.557,1.557,0,0,1,.5.439V-9.817l-.681-.131v-.768h1.955V-4.8l.611.131v.764H16.932Zm-1.78-1.654a1.94,1.94,0,0,0,.207.975.724.724,0,0,0,.679.356.985.985,0,0,0,.484-.113.9.9,0,0,0,.336-.327v-2a.971.971,0,0,0-.334-.351.9.9,0,0,0-.478-.124.715.715,0,0,0-.681.415,2.363,2.363,0,0,0-.214,1.082Zm6.092-1.724V-8.63H23l.061.55a1.513,1.513,0,0,1,.5-.471,1.356,1.356,0,0,1,.681-.166,1.571,1.571,0,0,1,1.361.685,3.058,3.058,0,0,1,.484,1.8v.092A2.712,2.712,0,0,1,25.6-4.454a1.6,1.6,0,0,1-1.353.637,1.512,1.512,0,0,1-.659-.137,1.353,1.353,0,0,1-.493-.4v1.366l.615.131v.768h-2.5v-.768l.615-.131V-7.731ZM24.813-6.23a2.284,2.284,0,0,0-.223-1.082.726.726,0,0,0-.681-.415.962.962,0,0,0-.491.118.841.841,0,0,0-.321.336V-5.2a.781.781,0,0,0,.321.305,1.081,1.081,0,0,0,.5.1.733.733,0,0,0,.679-.362,1.912,1.912,0,0,0,.216-.982Zm1.619-3.718v-.768h1.955V-4.8L29-4.672v.764H26.5v-.764l.615-.131V-9.817Zm5.991,6.039a2.3,2.3,0,0,1-.092-.242A1.91,1.91,0,0,1,32.27-4.4a1.753,1.753,0,0,1-.552.423,1.651,1.651,0,0,1-.744.161,1.559,1.559,0,0,1-1.1-.377,1.331,1.331,0,0,1-.408-1.028A1.168,1.168,0,0,1,30-6.248a2.78,2.78,0,0,1,1.562-.362h.65v-.463a.7.7,0,0,0-.2-.528.81.81,0,0,0-.58-.188,1.374,1.374,0,0,0-.388.05,1.016,1.016,0,0,0-.275.12l-.083.506h-.96l0-1.047a3.576,3.576,0,0,1,.8-.4,2.9,2.9,0,0,1,.984-.161,2.24,2.24,0,0,1,1.425.43,1.465,1.465,0,0,1,.548,1.224v1.951q0,.109,0,.205a1.459,1.459,0,0,0,.015.183l.388.052v.764Zm-1.1-.851a1.1,1.1,0,0,0,.524-.124,1.011,1.011,0,0,0,.367-.312v-.72h-.65a.888.888,0,0,0-.615.19.594.594,0,0,0-.209.456.472.472,0,0,0,.155.375A.632.632,0,0,0,31.319-4.76Zm5.223-.035a.751.751,0,0,0,.545-.2.7.7,0,0,0,.205-.53h1.152l.013.026a1.473,1.473,0,0,1-.537,1.2,2.026,2.026,0,0,1-1.379.482,2.026,2.026,0,0,1-1.628-.668A2.544,2.544,0,0,1,34.343-6.2v-.131a2.512,2.512,0,0,1,.587-1.715A2.1,2.1,0,0,1,36.6-8.717a2.9,2.9,0,0,1,1.025.17,2.026,2.026,0,0,1,.755.48L38.4-6.806H37.367l-.209-.737a.8.8,0,0,0-.236-.137.87.87,0,0,0-.319-.055.8.8,0,0,0-.764.393,2.039,2.039,0,0,0-.223,1.012V-6.2a2.174,2.174,0,0,0,.205,1.019A.745.745,0,0,0,36.542-4.795Zm4.752.977a2.126,2.126,0,0,1-1.632-.655,2.34,2.34,0,0,1-.611-1.663v-.175a2.583,2.583,0,0,1,.578-1.732,1.919,1.919,0,0,1,1.551-.676,1.911,1.911,0,0,1,1.484.576,2.216,2.216,0,0,1,.528,1.558v.694H40.373l-.009.026a1.232,1.232,0,0,0,.312.768.973.973,0,0,0,.753.3,2.451,2.451,0,0,0,.7-.085,3.229,3.229,0,0,0,.611-.268l.345.785a2.508,2.508,0,0,1-.757.388A3.223,3.223,0,0,1,41.294-3.817Zm-.113-3.918a.663.663,0,0,0-.559.271,1.409,1.409,0,0,0-.253.711l.013.022h1.562v-.113a1.022,1.022,0,0,0-.19-.648A.684.684,0,0,0,41.181-7.736Z" transform="translate(23.719 41.532)" fill="#fff"/>
</svg>
