<svg id="trash" xmlns="http://www.w3.org/2000/svg" width="16.656" height="20.5" viewBox="0 0 16.656 20.5">
  <path id="Path_15" data-name="Path 15" d="M63.055,2.563H59.531V1.922A1.922,1.922,0,0,0,57.609,0H55.047a1.922,1.922,0,0,0-1.922,1.922v.641H49.6a1.6,1.6,0,0,0-1.6,1.6V5.445a.641.641,0,0,0,.641.641H64.016a.641.641,0,0,0,.641-.641V4.164A1.6,1.6,0,0,0,63.055,2.563Zm-8.648-.641a.641.641,0,0,1,.641-.641h2.563a.641.641,0,0,1,.641.641v.641H54.406Z" transform="translate(-48)" fill="#a5a5a5"/>
  <path id="Path_16" data-name="Path 16" d="M73.564,184a.2.2,0,0,0-.2.21l.529,11.092a1.919,1.919,0,0,0,1.919,1.831h9.729a1.919,1.919,0,0,0,1.919-1.831l.529-11.092a.2.2,0,0,0-.2-.21Zm9.675,1.6a.641.641,0,0,1,1.281,0v8.328a.641.641,0,0,1-1.281,0Zm-3.2,0a.641.641,0,0,1,1.281,0v8.328a.641.641,0,0,1-1.281,0Zm-3.2,0a.641.641,0,0,1,1.281,0v8.328a.641.641,0,0,1-1.281,0Z" transform="translate(-72.349 -176.633)" fill="#a5a5a5"/>
</svg>
