<svg id="clock-circular-outline" xmlns="http://www.w3.org/2000/svg" width="16.308" height="16.308" viewBox="0 0 16.308 16.308">
  <g id="Group_5" data-name="Group 5">
    <path id="Path_2" data-name="Path 2" d="M8.154,0a8.154,8.154,0,1,0,8.154,8.154A8.163,8.163,0,0,0,8.154,0Zm0,14.526a6.372,6.372,0,1,1,6.372-6.372A6.379,6.379,0,0,1,8.154,14.526Z" fill="#a5a5a5"/>
    <path id="Path_3" data-name="Path 3" d="M258.171,143.363v-3.418a.691.691,0,1,0-1.382,0v3.638c0,.011,0,.021,0,.032a.687.687,0,0,0,.2.522l2.573,2.573a.691.691,0,0,0,.977-.977Z" transform="translate(-249.311 -135.199)" fill="#a5a5a5"/>
  </g>
</svg>
