<svg xmlns="http://www.w3.org/2000/svg" width="14" height="10.266" viewBox="0 0 14 10.266">
  <g id="fast-forward" transform="translate(0 -64.013)">
    <g id="Group_19" data-name="Group 19" transform="translate(6.066 64.013)">
      <g id="Group_18" data-name="Group 18" transform="translate(0 0)">
        <path id="Path_10" data-name="Path 10" d="M215.814,68.834l-4.2-4.666a.467.467,0,0,0-.347-.155h-2.8a.466.466,0,0,0-.347.778l3.919,4.355L208.12,73.5a.467.467,0,0,0,.347.779h2.8a.473.473,0,0,0,.347-.154l4.2-4.666A.467.467,0,0,0,215.814,68.834Z" transform="translate(-208 -64.013)" fill="#fff"/>
      </g>
    </g>
    <g id="Group_21" data-name="Group 21" transform="translate(0 64.013)">
      <g id="Group_20" data-name="Group 20" transform="translate(0 0)">
        <path id="Path_11" data-name="Path 11" d="M7.814,68.834l-4.2-4.666a.467.467,0,0,0-.347-.155H.467a.466.466,0,0,0-.347.778l3.919,4.355L.12,73.5a.467.467,0,0,0,.347.779h2.8a.473.473,0,0,0,.347-.154l4.2-4.666A.467.467,0,0,0,7.814,68.834Z" transform="translate(0 -64.013)" fill="#fff"/>
      </g>
    </g>
  </g>
</svg>
