<svg xmlns="http://www.w3.org/2000/svg" width="120" height="100" viewBox="0 0 166.72 159.58"><defs><style>.cls-1{isolation:isolate;}.cls-2{fill:none;stroke:#4c4c4c;stroke-miterlimit:10;stroke-width:1.42px;}.cls-3,.cls-5{fill:#4c4c4c;}.cls-4{fill:#f6a06a;}.cls-5{opacity:0.45;mix-blend-mode:multiply;}</style></defs><g class="cls-1"><g id="OBJECTS"><path class="cls-2" d="M108,40.07C105.43,35.73,90.1,40,73.72,49.5S46.13,70.32,48.66,74.66c0,0,20.73,37.64,51.48,20.12S108,40.07,108,40.07Z"/><path class="cls-3" d="M85.52,82.2l-59-52.42a3.93,3.93,0,0,1-.33-5.52h0a3.93,3.93,0,0,1,5.52-.32l59,52.41A3.93,3.93,0,0,1,91,81.87h0A3.94,3.94,0,0,1,85.52,82.2Z"/><path class="cls-4" d="M56.08,78.58c6.23-2.94,8.26-10.81,9.67-16.94.59-2.6,1.47-5.82,4.61-5.76,3,0,2.74,2.36,4.41,3.92,4.63-2.33,5.85-5.34,6.85-10.25.71-3.48.21-10.94,3.51-13.78a1.68,1.68,0,0,1,2.59.48c.51,1,.85,2,1.32,2.94.84-4.13,9.9-17.44,12.76-8.63,1.6,4.9-2,11-.71,16,4-3.1,5.6,1.13,5,5-.82,5.35-6.11,10.27-9.88,13.75-7.78,7.19-18,14.37-28.63,16.07C64.71,81.76,57.44,83.33,56.08,78.58Z"/><path class="cls-4" d="M81.54,39.05c.08-2.12,1.71-4.07,3.15-5.5s3.22-4.08.7-5.41c-3.6-1.9-5.78,3.76-5.61,6.62a9,9,0,0,0,.37,2.54A4.38,4.38,0,0,0,81.54,39.05Z"/><path class="cls-3" d="M108,40.07c2.54,4.35-8.68,15.62-25.06,25.17S51.2,79,48.66,74.66c0,0,20.73,37.64,51.48,20.12S108,40.07,108,40.07Z"/><path class="cls-5" d="M108,40.07c1.34,2.29-1.14,6.49-6.16,11.35a7.47,7.47,0,0,1,.35,2.68c-.18,2.55-2.06,4.46-3.35,6.52-1.6,2.58-1.73,4.53-1.19,7.46a15.89,15.89,0,0,1-.15,6.18c-.83,4-1.16,7.7-3.48,10.87-3.1,4.23-3.09,10-6.09,14a34.56,34.56,0,0,0,12.25-4.36C130.88,77.25,108,40.07,108,40.07Z"/><path class="cls-3" d="M49.45,17.11l.36.58-4.44,2.77-3.92-6.29,4.31-2.68.36.57-3.65,2.27,1.39,2.24,3.25-2,.36.57-3.25,2,1.45,2.33Z"/><path class="cls-3" d="M55.33,14.72A3,3,0,0,1,54,14.53l.05-.68a2.84,2.84,0,0,0,1.24.19,3.75,3.75,0,0,0,1.36-.31,2.47,2.47,0,0,0,1.24-.92A1.12,1.12,0,0,0,58,11.75a1,1,0,0,0-.53-.55,1.9,1.9,0,0,0-.76-.12c-.28,0-.66.06-1.13.14a13.21,13.21,0,0,1-1.39.14,2.1,2.1,0,0,1-1-.22,1.55,1.55,0,0,1-.76-.87,1.89,1.89,0,0,1-.12-1,2,2,0,0,1,.55-1,3.81,3.81,0,0,1,1.3-.85A4.6,4.6,0,0,1,55.32,7a3.7,3.7,0,0,1,1.16,0v.68A3.62,3.62,0,0,0,54.37,8a2.4,2.4,0,0,0-1.21.91A1.17,1.17,0,0,0,53.09,10a1,1,0,0,0,.52.55,1.85,1.85,0,0,0,.79.11,10.89,10.89,0,0,0,1.13-.13,10.65,10.65,0,0,1,1.37-.15,2.16,2.16,0,0,1,1,.21,1.56,1.56,0,0,1,.74.86,1.76,1.76,0,0,1,.12,1.06,2,2,0,0,1-.57,1,3.86,3.86,0,0,1-1.31.85A4.94,4.94,0,0,1,55.33,14.72Z"/><path class="cls-3" d="M64.45,4.62l-2.52.65-.17-.66,5.8-1.48.17.66-2.52.64L66.87,11l-.76.19Z"/><path class="cls-3" d="M73.8,9.49a.52.52,0,0,1-.22-.38.54.54,0,0,1,.11-.43.52.52,0,0,1,.37-.21.54.54,0,0,1,.42.11A.55.55,0,0,1,74.7,9a.6.6,0,0,1-.11.43.54.54,0,0,1-.38.22A.52.52,0,0,1,73.8,9.49Z"/><path class="cls-3" d="M91.79,8.73l-.06.68L86.55,9l0-.54,3.32-2.74a4.14,4.14,0,0,0,.87-.92,1.85,1.85,0,0,0,.27-.83,1.22,1.22,0,0,0-.36-1,1.93,1.93,0,0,0-1.25-.47,2.53,2.53,0,0,0-2.08.65l-.5-.51A2.85,2.85,0,0,1,88,1.87a4,4,0,0,1,1.53-.14,2.74,2.74,0,0,1,1.74.68,1.79,1.79,0,0,1,.54,1.52A2.58,2.58,0,0,1,91.51,5a4.52,4.52,0,0,1-1.07,1.13L87.73,8.39Z"/><path class="cls-3" d="M98,10.11a3,3,0,0,1-.72-1.51,5.14,5.14,0,0,1,.11-2,4.84,4.84,0,0,1,.84-1.86,2.94,2.94,0,0,1,1.32-1,2.64,2.64,0,0,1,1.6-.08,2.68,2.68,0,0,1,1.38.8,3,3,0,0,1,.71,1.52,4.79,4.79,0,0,1-.1,2,5,5,0,0,1-.84,1.86,3,3,0,0,1-1.33,1,2.81,2.81,0,0,1-3-.72Zm2.73,0a2.18,2.18,0,0,0,1-.84,4.34,4.34,0,0,0,.66-1.55,4.53,4.53,0,0,0,.12-1.68,2.26,2.26,0,0,0-.5-1.2,2,2,0,0,0-2.21-.53,2.43,2.43,0,0,0-1,.84,4.34,4.34,0,0,0-.66,1.55,4.53,4.53,0,0,0-.12,1.68,2.34,2.34,0,0,0,.5,1.2,1.84,1.84,0,0,0,1,.61A1.79,1.79,0,0,0,100.76,10.15Z"/><path class="cls-3" d="M112,14.44l-.26.63-4.81-2,.21-.5,4-1.62a4,4,0,0,0,1.1-.61,1.91,1.91,0,0,0,.52-.7,1.29,1.29,0,0,0,0-1.12,2,2,0,0,0-1-.82,2.52,2.52,0,0,0-2.18,0l-.33-.64a2.92,2.92,0,0,1,1.33-.3,4,4,0,0,1,1.5.32,2.82,2.82,0,0,1,1.46,1.18,1.78,1.78,0,0,1,0,1.61,2.46,2.46,0,0,1-.65.92,4.85,4.85,0,0,1-1.36.76l-3.27,1.33Z"/><path class="cls-3" d="M122.33,18.72,121.06,18l-1,1.67-.65-.4,1-1.66-3.58-2.16.28-.47,5.9-2.19.73.44L118,15.34,120.77,17l.88-1.47.64.38-.89,1.47,1.27.76Z"/><path class="cls-3" d="M32.1,126.34H30.05V132H22.5v-22.4H33.28a13.12,13.12,0,0,1,5.41,1,8,8,0,0,1,3.55,2.94A8,8,0,0,1,43.49,118a8,8,0,0,1-1.09,4.19,7.63,7.63,0,0,1-3.14,2.85L44,132H35.9Zm3-10.26a3.4,3.4,0,0,0-2.3-.68H30.05v5.24H32.8a3.35,3.35,0,0,0,2.3-.68,2.83,2.83,0,0,0,0-3.88Z"/><path class="cls-3" d="M65,126.28V132H46.34v-22.4h18.2v5.7H53.76v2.62h9.47v5.44H53.76v3Z"/><path class="cls-3" d="M73.05,131a11.25,11.25,0,0,1-4.46-4.16,12.16,12.16,0,0,1,0-12.13,11.18,11.18,0,0,1,4.46-4.16,13.66,13.66,0,0,1,6.4-1.49,14,14,0,0,1,5.83,1.15,10.88,10.88,0,0,1,4.22,3.33l-4.77,4.26a6.1,6.1,0,0,0-4.89-2.63A5,5,0,0,0,76,116.69a6.5,6.5,0,0,0,0,8.16,5,5,0,0,0,3.81,1.52,6.09,6.09,0,0,0,4.89-2.62L89.5,128a10.79,10.79,0,0,1-4.22,3.33,14,14,0,0,1-5.83,1.15A13.66,13.66,0,0,1,73.05,131Z"/><path class="cls-3" d="M91.68,109.57h7.55V132H91.68Z"/><path class="cls-3" d="M119.07,110.6a7.91,7.91,0,0,1,3.55,2.94,8.65,8.65,0,0,1,0,9,7.91,7.91,0,0,1-3.55,2.94,13.12,13.12,0,0,1-5.41,1h-3.23V132h-7.55v-22.4h10.78A13.12,13.12,0,0,1,119.07,110.6ZM115.49,120a2.86,2.86,0,0,0,0-3.88,3.43,3.43,0,0,0-2.31-.68h-2.75v5.24h2.75A3.37,3.37,0,0,0,115.49,120Z"/><path class="cls-3" d="M145,126.28V132H126.33v-22.4h18.21v5.7H133.76v2.62h9.47v5.44h-9.47v3Z"/><path class="cls-3" d="M61.72,136.49v16.8H60v-7.75H49.46v7.75H47.68v-16.8h1.78V144H60v-7.49Z"/><path class="cls-3" d="M75,141.81a4.76,4.76,0,0,1,1.32,3.66v7.82H74.73v-2A3.94,3.94,0,0,1,73,152.86a5.92,5.92,0,0,1-2.65.55,5.19,5.19,0,0,1-3.36-1,3.47,3.47,0,0,1-.09-5.26,5.68,5.68,0,0,1,3.71-1h4v-.77a3.28,3.28,0,0,0-.91-2.49,3.82,3.82,0,0,0-2.67-.85,6.59,6.59,0,0,0-2.3.4,5.8,5.8,0,0,0-1.9,1.09l-.77-1.27A6.6,6.6,0,0,1,68.42,141a8.83,8.83,0,0,1,2.83-.45A5.35,5.35,0,0,1,75,141.81Zm-1.92,9.6a4,4,0,0,0,1.54-1.91v-2.06h-4q-3.24,0-3.24,2.25a2.05,2.05,0,0,0,.84,1.74,3.77,3.77,0,0,0,2.35.64A4.49,4.49,0,0,0,73.12,151.41Z"/><path class="cls-3" d="M91.36,140.67l-5.61,12.62H84l-5.6-12.62h1.78l4.73,10.75,4.77-10.75Z"/><path class="cls-3" d="M104.39,147.51H93.84a4.46,4.46,0,0,0,1.51,3.18,5,5,0,0,0,3.45,1.21,5.4,5.4,0,0,0,2.16-.42,4.74,4.74,0,0,0,1.71-1.23l1,1.1a5.52,5.52,0,0,1-2.1,1.54,7.15,7.15,0,0,1-2.77.52,7,7,0,0,1-3.45-.82,6,6,0,0,1-2.34-2.3,6.52,6.52,0,0,1-.84-3.31,6.84,6.84,0,0,1,.8-3.31,5.84,5.84,0,0,1,2.21-2.28,6.23,6.23,0,0,1,3.16-.82,6.1,6.1,0,0,1,3.14.82,5.76,5.76,0,0,1,2.19,2.27,6.9,6.9,0,0,1,.79,3.32Zm-9.15-4.31a4.55,4.55,0,0,0-1.4,3h9a4.56,4.56,0,0,0-1.41-3,4.64,4.64,0,0,0-6.14,0Z"/><path class="cls-3" d="M118.11,142a5.37,5.37,0,0,1,1.4,4v7.32h-1.7v-7.15a4.22,4.22,0,0,0-1-3,3.71,3.71,0,0,0-2.81-1,4.31,4.31,0,0,0-3.23,1.21,4.6,4.6,0,0,0-1.19,3.35v6.62h-1.7V140.67h1.63V143a4.7,4.7,0,0,1,1.93-1.79,6.26,6.26,0,0,1,2.87-.64A5.17,5.17,0,0,1,118.11,142Z"/></g></g></svg>
